<svg xmlns="http://www.w3.org/2000/svg" width="136pt" height="334pt" viewBox="0 0 136.31 334.34"><g class="graph" transform="translate(4 330.34)"><path fill="#fff" d="M-4 4v-334.34h136.31V4H-4z"/><g class="node"><circle cx="64.15" cy="-297.06" r="29.28" fill="none" stroke="#000"/><text x="64.15" y="-292.86" font-family="Times,serif" font-size="14" text-anchor="middle">Start</text></g><g class="node"><path fill="none" stroke="#000" d="M93.54-230.78H34.77v36h58.77v-36z"/><text x="64.15" y="-208.58" font-family="Times,serif" font-size="14" text-anchor="middle">Process</text></g><g class="edge"><path fill="none" stroke="#000" d="M64.15-267.75v25.51"/><path stroke="#000" d="m67.65-242.38-3.5 10-3.5-10h7z"/></g><g class="node"><path fill="none" stroke="#000" d="M64.15-141.98 0-123.98l64.15 18 64.16-18-64.16-18z"/><text x="64.15" y="-119.78" font-family="Times,serif" font-size="14" text-anchor="middle">Decision</text></g><g class="edge"><path fill="none" stroke="#000" d="M64.15-194.64v41.04"/><path stroke="#000" d="m67.65-153.91-3.5 10-3.5-10h7z"/></g><g class="edge"><path fill="none" stroke="#000" stroke-dasharray="5,2" d="M70.24-140.77c1.98-5.93 3.93-12.79 4.91-19.21 1.14-7.38 1.14-9.42 0-16.8-.34-2.22-.79-4.5-1.32-6.76"/><path stroke="#000" d="m70.47-182.55.65-10.58 6.08 8.67-6.73 1.91z"/><text x="84.56" y="-164.18" font-family="Times,serif" font-size="14" text-anchor="middle">No</text></g><g class="node"><circle cx="64.15" cy="-26.59" r="26.59" fill="none" stroke="#000"/><text x="64.15" y="-22.39" font-family="Times,serif" font-size="14" text-anchor="middle">End</text></g><g class="edge"><path fill="none" stroke="#000" d="M64.15-105.49v40.54"/><path stroke="#000" d="m67.65-65.13-3.5 10-3.5-10h7z"/><text x="75.04" y="-75.38" font-family="Times,serif" font-size="14" text-anchor="middle">Yes</text></g></g></svg>
