<svg xmlns="http://www.w3.org/2000/svg" width="328" height="188pt" viewBox="0 0 246.03 188"><g class="graph" transform="translate(4 184)"><path fill="#fff" d="M-4 4v-188h246.03V4H-4z"/><g class="node"><path fill="#add8e6" stroke="#add8e6" d="M145.02-180h-54v36h54v-36z"/><text x="118.02" y="-157.8" font-family="Times,serif" font-size="14" text-anchor="middle">CEO</text></g><g class="node"><ellipse cx="57.02" cy="-90" fill="none" stroke="#000" rx="50.18" ry="18"/><text x="57.02" y="-85.8" font-family="Times,serif" font-size="14" text-anchor="middle">Manager1</text></g><g class="edge"><path fill="none" stroke="#000" d="M102.94-143.7c-7.2 8.26-15.95 18.31-23.88 27.4"/><path stroke="#000" d="m81.7-114-9.2 5.24 3.93-9.84 5.27 4.6z"/></g><g class="node"><ellipse cx="180.02" cy="-90" fill="none" stroke="#000" rx="50.18" ry="18"/><text x="180.02" y="-85.8" font-family="Times,serif" font-size="14" text-anchor="middle">Manager2</text></g><g class="edge"><path fill="none" stroke="#000" d="M133.34-143.7c7.39 8.35 16.4 18.52 24.52 27.68"/><path stroke="#000" d="m160.28-118.56 4.01 9.8-9.25-5.16 5.24-4.64z"/></g><g class="node"><ellipse cx="55.02" cy="-18" fill="none" stroke="#000" rx="55.02" ry="18"/><text x="55.02" y="-13.8" font-family="Times,serif" font-size="14" text-anchor="middle">Employee1</text></g><g class="edge"><path fill="none" stroke="#000" d="M56.52-71.7c-.21 7.29-.45 15.97-.69 24.16"/><path stroke="#000" d="m59.33-47.51-3.78 9.89-3.21-10.09 6.99.2z"/></g><g class="node"><ellipse cx="183.02" cy="-18" fill="none" stroke="#000" rx="55.02" ry="18"/><text x="183.02" y="-13.8" font-family="Times,serif" font-size="14" text-anchor="middle">Employee2</text></g><g class="edge"><path fill="none" stroke="#000" d="m180.76-71.7 1.03 24.16"/><path stroke="#000" d="m185.29-47.76-3.07 10.14-3.93-9.84 7-.3z"/></g></g></svg>
