<svg xmlns="http://www.w3.org/2000/svg" width="284" height="190pt" viewBox="0 0 213.03 189.6"><g class="graph" transform="translate(4 185.6)"><path fill="#fff" d="M-4 4v-189.6h213.03V4H-4z"/><g class="cluster"><path fill="none" stroke="#000" d="M127.03-8v-165.6h70V-8h-70z"/><text x="162.03" y="-157" font-family="Times,serif" font-size="14" text-anchor="middle">Cluster A</text></g><g class="node"><ellipse cx="55.03" cy="-122.8" fill="none" stroke="red" rx="55.03" ry="18"/><text x="55.03" y="-118.6" font-family="Times,serif" font-size="14" text-anchor="middle">My Node 1</text></g><g class="node"><ellipse cx="55.03" cy="-34" fill="none" stroke="green" rx="55.03" ry="18"/><text x="55.03" y="-29.8" font-family="Times,serif" font-size="14" text-anchor="middle">My Node 2</text></g><g class="edge"><path fill="none" stroke="#00f" d="M55.03-104.65v41.03"/><path fill="#00f" stroke="#00f" d="m58.53-63.92-3.5 10-3.5-10h7z"/><text x="87.09" y="-74.2" font-family="Times,serif" font-size="14" text-anchor="middle">Edge Label</text></g><g class="node"><ellipse cx="162.03" cy="-122.8" fill="none" stroke="#000" rx="27" ry="18"/><text x="162.03" y="-118.6" font-family="Times,serif" font-size="14" text-anchor="middle">A1</text></g><g class="node"><ellipse cx="162.03" cy="-34" fill="none" stroke="#000" rx="27" ry="18"/><text x="162.03" y="-29.8" font-family="Times,serif" font-size="14" text-anchor="middle">A2</text></g><g class="edge"><path fill="none" stroke="#000" d="M162.03-104.65v41.03"/><path stroke="#000" d="m165.53-63.92-3.5 10-3.5-10h7z"/></g></g></svg>
