<svg xmlns="http://www.w3.org/2000/svg" width="341pt" height="308pt" viewBox="0 0 340.78 307.86"><g class="graph" transform="translate(4 303.86)"><path fill="#fff" d="M-4 4v-307.86h340.78V4H-4z"/><g class="node"><circle cx="31.95" cy="-209.55" r="31.95" fill="#add8e6" stroke="#add8e6"/><text x="31.95" y="-205.35" font-family="Times,serif" font-size="14" text-anchor="middle">Node</text></g><g class="node"><text x="171.95" y="-205.35" fill="#00f" font-family="Times,serif" font-size="14" text-anchor="middle">Edge</text></g><g class="edge"><path fill="none" stroke="#000" d="M64.07-209.55h69.87"/><path stroke="#000" d="m133.64-213.05 10 3.5-10 3.5v-7z"/><text x="104.43" y="-216.75" font-family="Times,serif" font-size="14" text-anchor="middle">connect via</text></g><g class="node"><path fill="none" stroke="green" d="M198.95-124.8h-54v36h54v-36z"/><text x="171.95" y="-102.6" font-family="Times,serif" font-size="14" text-anchor="middle">Graph</text></g><g class="edge"><path fill="none" stroke="#000" d="m57.63-190.07 81.16 58.4"/><path stroke="#000" d="m140.54-134.72 6.07 8.68-10.16-3 4.09-5.68z"/><text x="141.14" y="-147" font-family="Times,serif" font-size="14" text-anchor="middle">part of</text></g><g class="edge"><path fill="none" stroke="#000" d="M171.95-191.92v55.51"/><path stroke="#000" d="m175.45-136.65-3.5 10-3.5-10h7z"/><text x="190.42" y="-147" font-family="Times,serif" font-size="14" text-anchor="middle">part of</text></g><g class="node"><path fill="none" stroke="green" d="M223.29-36H120.61V0h102.68v-36z"/><text x="171.95" y="-13.8" font-family="Times,serif" font-size="14" text-anchor="middle">Directed Graph</text></g><g class="edge"><path fill="none" stroke="#000" d="M171.95-88.65v41.03"/><path stroke="#000" d="m175.45-47.92-3.5 10-3.5-10h7z"/><text x="202.86" y="-58.2" font-family="Times,serif" font-size="14" text-anchor="middle">is a type of</text></g><g class="node"><path fill="none" stroke="purple" d="m332.78-227.55-3-4h-21l-3 4h-42.66v36h69.66v-36z"/><text x="297.95" y="-205.35" font-family="Times,serif" font-size="14" text-anchor="middle">Subgraph</text></g><g class="edge"><path fill="none" stroke="#000" d="M273.49-228.04c-30.71-20.92-85.24-50.62-133.86-38.54-25.47 6.33-51.54 19.91-71.64 32.23"/><path stroke="#000" d="m69.94-231.44-10.32 2.38 6.58-8.3 3.74 5.92z"/><text x="162.95" y="-263.71" font-family="Times,serif" font-size="14" text-anchor="middle">contains</text></g><g class="edge"><path fill="none" stroke="#000" d="M262.66-209.55h-52.9"/><path stroke="#000" d="m210.19-206.05-10-3.5 10-3.5v7z"/><text x="231.04" y="-216.75" font-family="Times,serif" font-size="14" text-anchor="middle">contains</text></g><g class="edge"><path fill="none" stroke="#000" d="M276.29-191.23c-20.28 16.22-50.8 40.62-73.6 58.85"/><path stroke="#000" d="m204.93-129.69-10 3.51 5.63-8.98 4.37 5.47z"/><text x="253.42" y="-147" font-family="Times,serif" font-size="14" text-anchor="middle">part of</text></g></g></svg>
